<?xml version="1.0" encoding="utf-8"?>
<svg xmlns="http://www.w3.org/2000/svg" xmlns:xlink="http://www.w3.org/1999/xlink" style="margin: auto; background: rgb(34, 32, 35); display: block; shape-rendering: auto;" width="217px" height="217px" viewBox="0 0 100 100" preserveAspectRatio="xMidYMid">
<g transform="rotate(0 50 50)">
  <rect x="49.5" y="6" rx="0.5" ry="13.32" width="1" height="36" fill="#f2d467">
    <animate attributeName="opacity" values="1;0" keyTimes="0;1" dur="1.2195121951219512s" begin="-1.2025745257452574s" repeatCount="indefinite"></animate>
  </rect>
</g><g transform="rotate(5 50 50)">
  <rect x="49.5" y="6" rx="0.5" ry="13.32" width="1" height="36" fill="#f2d467">
    <animate attributeName="opacity" values="1;0" keyTimes="0;1" dur="1.2195121951219512s" begin="-1.1856368563685635s" repeatCount="indefinite"></animate>
  </rect>
</g><g transform="rotate(10 50 50)">
  <rect x="49.5" y="6" rx="0.5" ry="13.32" width="1" height="36" fill="#f2d467">
    <animate attributeName="opacity" values="1;0" keyTimes="0;1" dur="1.2195121951219512s" begin="-1.1686991869918697s" repeatCount="indefinite"></animate>
  </rect>
</g><g transform="rotate(15 50 50)">
  <rect x="49.5" y="6" rx="0.5" ry="13.32" width="1" height="36" fill="#f2d467">
    <animate attributeName="opacity" values="1;0" keyTimes="0;1" dur="1.2195121951219512s" begin="-1.151761517615176s" repeatCount="indefinite"></animate>
  </rect>
</g><g transform="rotate(20 50 50)">
  <rect x="49.5" y="6" rx="0.5" ry="13.32" width="1" height="36" fill="#f2d467">
    <animate attributeName="opacity" values="1;0" keyTimes="0;1" dur="1.2195121951219512s" begin="-1.1348238482384823s" repeatCount="indefinite"></animate>
  </rect>
</g><g transform="rotate(25 50 50)">
  <rect x="49.5" y="6" rx="0.5" ry="13.32" width="1" height="36" fill="#f2d467">
    <animate attributeName="opacity" values="1;0" keyTimes="0;1" dur="1.2195121951219512s" begin="-1.1178861788617884s" repeatCount="indefinite"></animate>
  </rect>
</g><g transform="rotate(30 50 50)">
  <rect x="49.5" y="6" rx="0.5" ry="13.32" width="1" height="36" fill="#f2d467">
    <animate attributeName="opacity" values="1;0" keyTimes="0;1" dur="1.2195121951219512s" begin="-1.1009485094850948s" repeatCount="indefinite"></animate>
  </rect>
</g><g transform="rotate(35 50 50)">
  <rect x="49.5" y="6" rx="0.5" ry="13.32" width="1" height="36" fill="#f2d467">
    <animate attributeName="opacity" values="1;0" keyTimes="0;1" dur="1.2195121951219512s" begin="-1.084010840108401s" repeatCount="indefinite"></animate>
  </rect>
</g><g transform="rotate(40 50 50)">
  <rect x="49.5" y="6" rx="0.5" ry="13.32" width="1" height="36" fill="#f2d467">
    <animate attributeName="opacity" values="1;0" keyTimes="0;1" dur="1.2195121951219512s" begin="-1.0670731707317072s" repeatCount="indefinite"></animate>
  </rect>
</g><g transform="rotate(45 50 50)">
  <rect x="49.5" y="6" rx="0.5" ry="13.32" width="1" height="36" fill="#f2d467">
    <animate attributeName="opacity" values="1;0" keyTimes="0;1" dur="1.2195121951219512s" begin="-1.0501355013550135s" repeatCount="indefinite"></animate>
  </rect>
</g><g transform="rotate(50 50 50)">
  <rect x="49.5" y="6" rx="0.5" ry="13.32" width="1" height="36" fill="#f2d467">
    <animate attributeName="opacity" values="1;0" keyTimes="0;1" dur="1.2195121951219512s" begin="-1.0331978319783197s" repeatCount="indefinite"></animate>
  </rect>
</g><g transform="rotate(55 50 50)">
  <rect x="49.5" y="6" rx="0.5" ry="13.32" width="1" height="36" fill="#f2d467">
    <animate attributeName="opacity" values="1;0" keyTimes="0;1" dur="1.2195121951219512s" begin="-1.0162601626016259s" repeatCount="indefinite"></animate>
  </rect>
</g><g transform="rotate(60 50 50)">
  <rect x="49.5" y="6" rx="0.5" ry="13.32" width="1" height="36" fill="#f2d467">
    <animate attributeName="opacity" values="1;0" keyTimes="0;1" dur="1.2195121951219512s" begin="-0.9993224932249322s" repeatCount="indefinite"></animate>
  </rect>
</g><g transform="rotate(65 50 50)">
  <rect x="49.5" y="6" rx="0.5" ry="13.32" width="1" height="36" fill="#f2d467">
    <animate attributeName="opacity" values="1;0" keyTimes="0;1" dur="1.2195121951219512s" begin="-0.9823848238482383s" repeatCount="indefinite"></animate>
  </rect>
</g><g transform="rotate(70 50 50)">
  <rect x="49.5" y="6" rx="0.5" ry="13.32" width="1" height="36" fill="#f2d467">
    <animate attributeName="opacity" values="1;0" keyTimes="0;1" dur="1.2195121951219512s" begin="-0.9654471544715446s" repeatCount="indefinite"></animate>
  </rect>
</g><g transform="rotate(75 50 50)">
  <rect x="49.5" y="6" rx="0.5" ry="13.32" width="1" height="36" fill="#f2d467">
    <animate attributeName="opacity" values="1;0" keyTimes="0;1" dur="1.2195121951219512s" begin="-0.9485094850948509s" repeatCount="indefinite"></animate>
  </rect>
</g><g transform="rotate(80 50 50)">
  <rect x="49.5" y="6" rx="0.5" ry="13.32" width="1" height="36" fill="#f2d467">
    <animate attributeName="opacity" values="1;0" keyTimes="0;1" dur="1.2195121951219512s" begin="-0.9315718157181571s" repeatCount="indefinite"></animate>
  </rect>
</g><g transform="rotate(85 50 50)">
  <rect x="49.5" y="6" rx="0.5" ry="13.32" width="1" height="36" fill="#f2d467">
    <animate attributeName="opacity" values="1;0" keyTimes="0;1" dur="1.2195121951219512s" begin="-0.9146341463414633s" repeatCount="indefinite"></animate>
  </rect>
</g><g transform="rotate(90 50 50)">
  <rect x="49.5" y="6" rx="0.5" ry="13.32" width="1" height="36" fill="#f2d467">
    <animate attributeName="opacity" values="1;0" keyTimes="0;1" dur="1.2195121951219512s" begin="-0.8976964769647695s" repeatCount="indefinite"></animate>
  </rect>
</g><g transform="rotate(95 50 50)">
  <rect x="49.5" y="6" rx="0.5" ry="13.32" width="1" height="36" fill="#f2d467">
    <animate attributeName="opacity" values="1;0" keyTimes="0;1" dur="1.2195121951219512s" begin="-0.8807588075880758s" repeatCount="indefinite"></animate>
  </rect>
</g><g transform="rotate(100 50 50)">
  <rect x="49.5" y="6" rx="0.5" ry="13.32" width="1" height="36" fill="#f2d467">
    <animate attributeName="opacity" values="1;0" keyTimes="0;1" dur="1.2195121951219512s" begin="-0.8638211382113821s" repeatCount="indefinite"></animate>
  </rect>
</g><g transform="rotate(105 50 50)">
  <rect x="49.5" y="6" rx="0.5" ry="13.32" width="1" height="36" fill="#f2d467">
    <animate attributeName="opacity" values="1;0" keyTimes="0;1" dur="1.2195121951219512s" begin="-0.8468834688346882s" repeatCount="indefinite"></animate>
  </rect>
</g><g transform="rotate(110 50 50)">
  <rect x="49.5" y="6" rx="0.5" ry="13.32" width="1" height="36" fill="#f2d467">
    <animate attributeName="opacity" values="1;0" keyTimes="0;1" dur="1.2195121951219512s" begin="-0.8299457994579945s" repeatCount="indefinite"></animate>
  </rect>
</g><g transform="rotate(115 50 50)">
  <rect x="49.5" y="6" rx="0.5" ry="13.32" width="1" height="36" fill="#f2d467">
    <animate attributeName="opacity" values="1;0" keyTimes="0;1" dur="1.2195121951219512s" begin="-0.8130081300813007s" repeatCount="indefinite"></animate>
  </rect>
</g><g transform="rotate(120 50 50)">
  <rect x="49.5" y="6" rx="0.5" ry="13.32" width="1" height="36" fill="#f2d467">
    <animate attributeName="opacity" values="1;0" keyTimes="0;1" dur="1.2195121951219512s" begin="-0.796070460704607s" repeatCount="indefinite"></animate>
  </rect>
</g><g transform="rotate(125 50 50)">
  <rect x="49.5" y="6" rx="0.5" ry="13.32" width="1" height="36" fill="#f2d467">
    <animate attributeName="opacity" values="1;0" keyTimes="0;1" dur="1.2195121951219512s" begin="-0.7791327913279132s" repeatCount="indefinite"></animate>
  </rect>
</g><g transform="rotate(130 50 50)">
  <rect x="49.5" y="6" rx="0.5" ry="13.32" width="1" height="36" fill="#f2d467">
    <animate attributeName="opacity" values="1;0" keyTimes="0;1" dur="1.2195121951219512s" begin="-0.7621951219512194s" repeatCount="indefinite"></animate>
  </rect>
</g><g transform="rotate(135 50 50)">
  <rect x="49.5" y="6" rx="0.5" ry="13.32" width="1" height="36" fill="#f2d467">
    <animate attributeName="opacity" values="1;0" keyTimes="0;1" dur="1.2195121951219512s" begin="-0.7452574525745257s" repeatCount="indefinite"></animate>
  </rect>
</g><g transform="rotate(140 50 50)">
  <rect x="49.5" y="6" rx="0.5" ry="13.32" width="1" height="36" fill="#f2d467">
    <animate attributeName="opacity" values="1;0" keyTimes="0;1" dur="1.2195121951219512s" begin="-0.7283197831978319s" repeatCount="indefinite"></animate>
  </rect>
</g><g transform="rotate(145 50 50)">
  <rect x="49.5" y="6" rx="0.5" ry="13.32" width="1" height="36" fill="#f2d467">
    <animate attributeName="opacity" values="1;0" keyTimes="0;1" dur="1.2195121951219512s" begin="-0.7113821138211381s" repeatCount="indefinite"></animate>
  </rect>
</g><g transform="rotate(150 50 50)">
  <rect x="49.5" y="6" rx="0.5" ry="13.32" width="1" height="36" fill="#f2d467">
    <animate attributeName="opacity" values="1;0" keyTimes="0;1" dur="1.2195121951219512s" begin="-0.6944444444444444s" repeatCount="indefinite"></animate>
  </rect>
</g><g transform="rotate(155 50 50)">
  <rect x="49.5" y="6" rx="0.5" ry="13.32" width="1" height="36" fill="#f2d467">
    <animate attributeName="opacity" values="1;0" keyTimes="0;1" dur="1.2195121951219512s" begin="-0.6775067750677506s" repeatCount="indefinite"></animate>
  </rect>
</g><g transform="rotate(160 50 50)">
  <rect x="49.5" y="6" rx="0.5" ry="13.32" width="1" height="36" fill="#f2d467">
    <animate attributeName="opacity" values="1;0" keyTimes="0;1" dur="1.2195121951219512s" begin="-0.6605691056910569s" repeatCount="indefinite"></animate>
  </rect>
</g><g transform="rotate(165 50 50)">
  <rect x="49.5" y="6" rx="0.5" ry="13.32" width="1" height="36" fill="#f2d467">
    <animate attributeName="opacity" values="1;0" keyTimes="0;1" dur="1.2195121951219512s" begin="-0.643631436314363s" repeatCount="indefinite"></animate>
  </rect>
</g><g transform="rotate(170 50 50)">
  <rect x="49.5" y="6" rx="0.5" ry="13.32" width="1" height="36" fill="#f2d467">
    <animate attributeName="opacity" values="1;0" keyTimes="0;1" dur="1.2195121951219512s" begin="-0.6266937669376693s" repeatCount="indefinite"></animate>
  </rect>
</g><g transform="rotate(175 50 50)">
  <rect x="49.5" y="6" rx="0.5" ry="13.32" width="1" height="36" fill="#f2d467">
    <animate attributeName="opacity" values="1;0" keyTimes="0;1" dur="1.2195121951219512s" begin="-0.6097560975609756s" repeatCount="indefinite"></animate>
  </rect>
</g><g transform="rotate(180 50 50)">
  <rect x="49.5" y="6" rx="0.5" ry="13.32" width="1" height="36" fill="#f2d467">
    <animate attributeName="opacity" values="1;0" keyTimes="0;1" dur="1.2195121951219512s" begin="-0.5928184281842818s" repeatCount="indefinite"></animate>
  </rect>
</g><g transform="rotate(185 50 50)">
  <rect x="49.5" y="6" rx="0.5" ry="13.32" width="1" height="36" fill="#f2d467">
    <animate attributeName="opacity" values="1;0" keyTimes="0;1" dur="1.2195121951219512s" begin="-0.575880758807588s" repeatCount="indefinite"></animate>
  </rect>
</g><g transform="rotate(190 50 50)">
  <rect x="49.5" y="6" rx="0.5" ry="13.32" width="1" height="36" fill="#f2d467">
    <animate attributeName="opacity" values="1;0" keyTimes="0;1" dur="1.2195121951219512s" begin="-0.5589430894308942s" repeatCount="indefinite"></animate>
  </rect>
</g><g transform="rotate(195 50 50)">
  <rect x="49.5" y="6" rx="0.5" ry="13.32" width="1" height="36" fill="#f2d467">
    <animate attributeName="opacity" values="1;0" keyTimes="0;1" dur="1.2195121951219512s" begin="-0.5420054200542005s" repeatCount="indefinite"></animate>
  </rect>
</g><g transform="rotate(200 50 50)">
  <rect x="49.5" y="6" rx="0.5" ry="13.32" width="1" height="36" fill="#f2d467">
    <animate attributeName="opacity" values="1;0" keyTimes="0;1" dur="1.2195121951219512s" begin="-0.5250677506775068s" repeatCount="indefinite"></animate>
  </rect>
</g><g transform="rotate(205 50 50)">
  <rect x="49.5" y="6" rx="0.5" ry="13.32" width="1" height="36" fill="#f2d467">
    <animate attributeName="opacity" values="1;0" keyTimes="0;1" dur="1.2195121951219512s" begin="-0.5081300813008129s" repeatCount="indefinite"></animate>
  </rect>
</g><g transform="rotate(210 50 50)">
  <rect x="49.5" y="6" rx="0.5" ry="13.32" width="1" height="36" fill="#f2d467">
    <animate attributeName="opacity" values="1;0" keyTimes="0;1" dur="1.2195121951219512s" begin="-0.49119241192411917s" repeatCount="indefinite"></animate>
  </rect>
</g><g transform="rotate(215 50 50)">
  <rect x="49.5" y="6" rx="0.5" ry="13.32" width="1" height="36" fill="#f2d467">
    <animate attributeName="opacity" values="1;0" keyTimes="0;1" dur="1.2195121951219512s" begin="-0.47425474254742545s" repeatCount="indefinite"></animate>
  </rect>
</g><g transform="rotate(220 50 50)">
  <rect x="49.5" y="6" rx="0.5" ry="13.32" width="1" height="36" fill="#f2d467">
    <animate attributeName="opacity" values="1;0" keyTimes="0;1" dur="1.2195121951219512s" begin="-0.45731707317073167s" repeatCount="indefinite"></animate>
  </rect>
</g><g transform="rotate(225 50 50)">
  <rect x="49.5" y="6" rx="0.5" ry="13.32" width="1" height="36" fill="#f2d467">
    <animate attributeName="opacity" values="1;0" keyTimes="0;1" dur="1.2195121951219512s" begin="-0.4403794037940379s" repeatCount="indefinite"></animate>
  </rect>
</g><g transform="rotate(230 50 50)">
  <rect x="49.5" y="6" rx="0.5" ry="13.32" width="1" height="36" fill="#f2d467">
    <animate attributeName="opacity" values="1;0" keyTimes="0;1" dur="1.2195121951219512s" begin="-0.4234417344173441s" repeatCount="indefinite"></animate>
  </rect>
</g><g transform="rotate(235 50 50)">
  <rect x="49.5" y="6" rx="0.5" ry="13.32" width="1" height="36" fill="#f2d467">
    <animate attributeName="opacity" values="1;0" keyTimes="0;1" dur="1.2195121951219512s" begin="-0.40650406504065034s" repeatCount="indefinite"></animate>
  </rect>
</g><g transform="rotate(240 50 50)">
  <rect x="49.5" y="6" rx="0.5" ry="13.32" width="1" height="36" fill="#f2d467">
    <animate attributeName="opacity" values="1;0" keyTimes="0;1" dur="1.2195121951219512s" begin="-0.3895663956639566s" repeatCount="indefinite"></animate>
  </rect>
</g><g transform="rotate(245 50 50)">
  <rect x="49.5" y="6" rx="0.5" ry="13.32" width="1" height="36" fill="#f2d467">
    <animate attributeName="opacity" values="1;0" keyTimes="0;1" dur="1.2195121951219512s" begin="-0.37262872628726285s" repeatCount="indefinite"></animate>
  </rect>
</g><g transform="rotate(250 50 50)">
  <rect x="49.5" y="6" rx="0.5" ry="13.32" width="1" height="36" fill="#f2d467">
    <animate attributeName="opacity" values="1;0" keyTimes="0;1" dur="1.2195121951219512s" begin="-0.35569105691056907s" repeatCount="indefinite"></animate>
  </rect>
</g><g transform="rotate(255 50 50)">
  <rect x="49.5" y="6" rx="0.5" ry="13.32" width="1" height="36" fill="#f2d467">
    <animate attributeName="opacity" values="1;0" keyTimes="0;1" dur="1.2195121951219512s" begin="-0.3387533875338753s" repeatCount="indefinite"></animate>
  </rect>
</g><g transform="rotate(260 50 50)">
  <rect x="49.5" y="6" rx="0.5" ry="13.32" width="1" height="36" fill="#f2d467">
    <animate attributeName="opacity" values="1;0" keyTimes="0;1" dur="1.2195121951219512s" begin="-0.3218157181571815s" repeatCount="indefinite"></animate>
  </rect>
</g><g transform="rotate(265 50 50)">
  <rect x="49.5" y="6" rx="0.5" ry="13.32" width="1" height="36" fill="#f2d467">
    <animate attributeName="opacity" values="1;0" keyTimes="0;1" dur="1.2195121951219512s" begin="-0.3048780487804878s" repeatCount="indefinite"></animate>
  </rect>
</g><g transform="rotate(270 50 50)">
  <rect x="49.5" y="6" rx="0.5" ry="13.32" width="1" height="36" fill="#f2d467">
    <animate attributeName="opacity" values="1;0" keyTimes="0;1" dur="1.2195121951219512s" begin="-0.287940379403794s" repeatCount="indefinite"></animate>
  </rect>
</g><g transform="rotate(275 50 50)">
  <rect x="49.5" y="6" rx="0.5" ry="13.32" width="1" height="36" fill="#f2d467">
    <animate attributeName="opacity" values="1;0" keyTimes="0;1" dur="1.2195121951219512s" begin="-0.27100271002710025s" repeatCount="indefinite"></animate>
  </rect>
</g><g transform="rotate(280 50 50)">
  <rect x="49.5" y="6" rx="0.5" ry="13.32" width="1" height="36" fill="#f2d467">
    <animate attributeName="opacity" values="1;0" keyTimes="0;1" dur="1.2195121951219512s" begin="-0.25406504065040647s" repeatCount="indefinite"></animate>
  </rect>
</g><g transform="rotate(285 50 50)">
  <rect x="49.5" y="6" rx="0.5" ry="13.32" width="1" height="36" fill="#f2d467">
    <animate attributeName="opacity" values="1;0" keyTimes="0;1" dur="1.2195121951219512s" begin="-0.23712737127371272s" repeatCount="indefinite"></animate>
  </rect>
</g><g transform="rotate(290 50 50)">
  <rect x="49.5" y="6" rx="0.5" ry="13.32" width="1" height="36" fill="#f2d467">
    <animate attributeName="opacity" values="1;0" keyTimes="0;1" dur="1.2195121951219512s" begin="-0.22018970189701895s" repeatCount="indefinite"></animate>
  </rect>
</g><g transform="rotate(295 50 50)">
  <rect x="49.5" y="6" rx="0.5" ry="13.32" width="1" height="36" fill="#f2d467">
    <animate attributeName="opacity" values="1;0" keyTimes="0;1" dur="1.2195121951219512s" begin="-0.20325203252032517s" repeatCount="indefinite"></animate>
  </rect>
</g><g transform="rotate(300 50 50)">
  <rect x="49.5" y="6" rx="0.5" ry="13.32" width="1" height="36" fill="#f2d467">
    <animate attributeName="opacity" values="1;0" keyTimes="0;1" dur="1.2195121951219512s" begin="-0.18631436314363142s" repeatCount="indefinite"></animate>
  </rect>
</g><g transform="rotate(305 50 50)">
  <rect x="49.5" y="6" rx="0.5" ry="13.32" width="1" height="36" fill="#f2d467">
    <animate attributeName="opacity" values="1;0" keyTimes="0;1" dur="1.2195121951219512s" begin="-0.16937669376693765s" repeatCount="indefinite"></animate>
  </rect>
</g><g transform="rotate(310 50 50)">
  <rect x="49.5" y="6" rx="0.5" ry="13.32" width="1" height="36" fill="#f2d467">
    <animate attributeName="opacity" values="1;0" keyTimes="0;1" dur="1.2195121951219512s" begin="-0.1524390243902439s" repeatCount="indefinite"></animate>
  </rect>
</g><g transform="rotate(315 50 50)">
  <rect x="49.5" y="6" rx="0.5" ry="13.32" width="1" height="36" fill="#f2d467">
    <animate attributeName="opacity" values="1;0" keyTimes="0;1" dur="1.2195121951219512s" begin="-0.13550135501355012s" repeatCount="indefinite"></animate>
  </rect>
</g><g transform="rotate(320 50 50)">
  <rect x="49.5" y="6" rx="0.5" ry="13.32" width="1" height="36" fill="#f2d467">
    <animate attributeName="opacity" values="1;0" keyTimes="0;1" dur="1.2195121951219512s" begin="-0.11856368563685636s" repeatCount="indefinite"></animate>
  </rect>
</g><g transform="rotate(325 50 50)">
  <rect x="49.5" y="6" rx="0.5" ry="13.32" width="1" height="36" fill="#f2d467">
    <animate attributeName="opacity" values="1;0" keyTimes="0;1" dur="1.2195121951219512s" begin="-0.10162601626016259s" repeatCount="indefinite"></animate>
  </rect>
</g><g transform="rotate(330 50 50)">
  <rect x="49.5" y="6" rx="0.5" ry="13.32" width="1" height="36" fill="#f2d467">
    <animate attributeName="opacity" values="1;0" keyTimes="0;1" dur="1.2195121951219512s" begin="-0.08468834688346882s" repeatCount="indefinite"></animate>
  </rect>
</g><g transform="rotate(335 50 50)">
  <rect x="49.5" y="6" rx="0.5" ry="13.32" width="1" height="36" fill="#f2d467">
    <animate attributeName="opacity" values="1;0" keyTimes="0;1" dur="1.2195121951219512s" begin="-0.06775067750677506s" repeatCount="indefinite"></animate>
  </rect>
</g><g transform="rotate(340 50 50)">
  <rect x="49.5" y="6" rx="0.5" ry="13.32" width="1" height="36" fill="#f2d467">
    <animate attributeName="opacity" values="1;0" keyTimes="0;1" dur="1.2195121951219512s" begin="-0.05081300813008129s" repeatCount="indefinite"></animate>
  </rect>
</g><g transform="rotate(345 50 50)">
  <rect x="49.5" y="6" rx="0.5" ry="13.32" width="1" height="36" fill="#f2d467">
    <animate attributeName="opacity" values="1;0" keyTimes="0;1" dur="1.2195121951219512s" begin="-0.03387533875338753s" repeatCount="indefinite"></animate>
  </rect>
</g><g transform="rotate(350 50 50)">
  <rect x="49.5" y="6" rx="0.5" ry="13.32" width="1" height="36" fill="#f2d467">
    <animate attributeName="opacity" values="1;0" keyTimes="0;1" dur="1.2195121951219512s" begin="-0.016937669376693765s" repeatCount="indefinite"></animate>
  </rect>
</g><g transform="rotate(355 50 50)">
  <rect x="49.5" y="6" rx="0.5" ry="13.32" width="1" height="36" fill="#f2d467">
    <animate attributeName="opacity" values="1;0" keyTimes="0;1" dur="1.2195121951219512s" begin="0s" repeatCount="indefinite"></animate>
  </rect>
</g>
<!-- [ldio] generated by https://loading.io/ --></svg>